<svg width="108" height="116" viewBox="0 0 108 116" fill="none" xmlns="http://www.w3.org/2000/svg">
<path d="M32.9682 3.04501C16.6262 9.57 5.68418 26.68 5.68418 46.11C5.68418 53.505 4.97366 56.695 2.84209 59.45C0.994731 61.915 0 65.395 0 69.89C0 75.545 0.710522 77.43 4.40524 81.055C6.82101 83.52 9.23679 85.55 9.94731 85.55C10.5157 85.55 11.9368 87.725 12.9315 90.19C15.7736 97.44 26.8577 108.75 34.8156 112.52C40.6419 115.42 44.3366 116 55.1365 116H68.2101V110.2V104.4H61.1049C47.8892 104.4 39.9313 101.645 32.5419 94.685C28.8472 91.205 24.5841 85.405 23.3051 82.07C21.5999 77.865 19.4683 75.255 16.7683 74.24C12.3631 72.645 11.5105 68.15 14.921 65.25C16.1999 64.235 17.0525 61.045 17.0525 57.855C17.0525 54.085 18.0473 51.185 19.8946 49.3C22.5946 46.545 24.5841 46.4 51.1576 46.4C86.6837 46.4 85.2627 45.53 85.2627 66.7V81.2H74.1785C64.7996 81.2 62.9523 80.765 61.3891 78.3C59.3997 74.965 50.0208 74.24 47.1787 77.14C44.905 79.46 44.905 88.74 47.1787 91.06C48.3155 92.22 56.6997 92.8 75.5996 92.8C108.568 92.8 107.999 93.09 107.999 75.4C107.999 65.685 107.573 63.365 105.157 60.9C103.594 59.305 101.036 58 99.4731 58C96.9152 58 96.631 56.985 96.631 47.125C96.631 26.39 86.1153 9.57 68.9206 3.04501C58.4049 -1.015 43.3419 -1.015 32.9682 3.04501Z" fill="url(#paint0_radial_43_1924)"/>
<defs>
<radialGradient id="paint0_radial_43_1924" cx="0" cy="0" r="1" gradientUnits="userSpaceOnUse" gradientTransform="translate(26.4444 16.3674) rotate(59.498) scale(100.665 177.783)">
<stop stop-color="#040F18"/>
<stop offset="0.10936" stop-color="#081C2D"/>
<stop offset="0.264132" stop-color="#0B2842"/>
<stop offset="0.400953" stop-color="#0F3558"/>
<stop offset="0.540236" stop-color="#074783"/>
<stop offset="0.622515" stop-color="#0958A2"/>
<stop offset="0.707057" stop-color="#0C6AC2"/>
<stop offset="0.767093" stop-color="#0E7ADE"/>
<stop offset="0.849185" stop-color="#2D8DEB"/>
<stop offset="0.922197" stop-color="#51ABFF"/>
<stop offset="0.970352" stop-color="#8FC9FF"/>
</radialGradient>
</defs>
</svg>
